<svg xmlns="http://www.w3.org/2000/svg" viewBox="0 0 120 64" fill="none" color="#1B1A17" style="--accent:#2F6BD8" stroke="currentColor" stroke-width="2.2" stroke-linecap="round" stroke-linejoin="round">
  <path d="M15 48h90M25 48l8-19h38l20 19"/>
  <path d="M38 29h31l14 15H28l10-15Z"/>
  <circle cx="35" cy="49" r="6"/><circle cx="86" cy="49" r="6"/>
  <path d="M91 11c-4 5-4 11 0 16M100 13l5 3M101 24l5-2" stroke="var(--accent)" stroke-width="1.3"/>
  <path d="M54 17c-4 6-6 9-6 12a6 6 0 0 0 12 0c0-3-2-6-6-12Z" stroke="var(--accent)"/>
  <path d="M68 20c-3 4-4 6-4 8a4 4 0 0 0 8 0c0-2-1-4-4-8Z" stroke="var(--accent)" stroke-width="1.3"/>
</svg>
